<svg width="26" height="25" viewBox="0 0 26 25" fill="none" xmlns="http://www.w3.org/2000/svg">
<path d="M12.5093 1C14.5239 1 16.456 1.8003 17.8806 3.22486C19.3051 4.64941 20.1054 6.58151 20.1054 8.59613C20.1054 17.0422 23.1864 18.7066 24.0186 18.7066H1C1.84992 18.7066 4.91316 17.0245 4.91316 8.59613C4.91316 6.58151 5.71346 4.64941 7.13802 3.22486C8.56257 1.8003 10.4947 1 12.5093 1V1Z" stroke="#787878" stroke-width="2" stroke-linecap="round" stroke-linejoin="round"/>
<path d="M9.85327 21.947C10.0063 22.5349 10.3501 23.0554 10.8308 23.427C11.3114 23.7985 11.9018 24.0001 12.5093 24.0001C13.1168 24.0001 13.7071 23.7985 14.1878 23.427C14.6684 23.0554 15.0122 22.5349 15.1653 21.947" stroke="#787878" stroke-width="2" stroke-linecap="round" stroke-linejoin="round"/>
</svg>
