<svg width="38" height="38" viewBox="0 0 38 38" fill="none" xmlns="http://www.w3.org/2000/svg">
<circle id="Ellipse 16" cx="19" cy="19" r="19" fill="#8E8E8E"/>
<g id="Group" transform="translate(7.5,9.5)">
<path id="Vector" d="M22.0833 5.83337C22.0833 5.41345 21.9165 5.01072 21.6196 4.71379C21.3227 4.41686 20.9199 4.25004 20.5 4.25004H17.3333L14.9583 1.08337H8.625L6.25 4.25004H3.08333C2.66341 4.25004 2.26068 4.41686 1.96375 4.71379C1.66682 5.01072 1.5 5.41345 1.5 5.83337V15.3334C1.5 15.7533 1.66682 16.156 1.96375 16.453C2.26068 16.7499 2.66341 16.9167 3.08333 16.9167H20.5C20.9199 16.9167 21.3227 16.7499 21.6196 16.453C21.9165 16.156 22.0833 15.7533 22.0833 15.3334V5.83337Z" fill="white" stroke="white" stroke-width="1.58333" stroke-linecap="round" stroke-linejoin="round"/>
<path id="Vector_2" d="M11.791 13.3542C13.7585 13.3542 15.3535 11.7593 15.3535 9.79175C15.3535 7.82423 13.7585 6.22925 11.791 6.22925C9.8235 6.22925 8.22852 7.82423 8.22852 9.79175C8.22852 11.7593 9.8235 13.3542 11.791 13.3542Z" stroke="#8E8E8E" stroke-width="1.58333" stroke-linecap="round" stroke-linejoin="round"/>
</g>
</svg>
