<svg width="6" height="19" viewBox="0 0 6 19" fill="none" xmlns="http://www.w3.org/2000/svg">
<path d="M3 5C4.10457 5 5 4.10457 5 3C5 1.89543 4.10457 1 3 1C1.89543 1 1 1.89543 1 3C1 4.10457 1.89543 5 3 5Z" stroke="white" stroke-width="1.33333" stroke-linecap="round" stroke-linejoin="round"/>
<path d="M3 11.6666C4.10457 11.6666 5 10.7712 5 9.66663C5 8.56206 4.10457 7.66663 3 7.66663C1.89543 7.66663 1 8.56206 1 9.66663C1 10.7712 1.89543 11.6666 3 11.6666Z" stroke="white" stroke-width="1.33333" stroke-linecap="round" stroke-linejoin="round"/>
<path d="M3 18.3334C4.10457 18.3334 5 17.4379 5 16.3334C5 15.2288 4.10457 14.3334 3 14.3334C1.89543 14.3334 1 15.2288 1 16.3334C1 17.4379 1.89543 18.3334 3 18.3334Z" stroke="white" stroke-width="1.33333" stroke-linecap="round" stroke-linejoin="round"/>
</svg>
