<svg width="23" height="23" viewBox="0 0 23 23" fill="none" xmlns="http://www.w3.org/2000/svg">
<rect width="23" height="23" fill="#F5F5F5"/>
<g id="&#235;&#167;&#136;&#236;&#157;&#180;&#237;&#142;&#152;&#236;&#157;&#180;&#236;&#167;&#128;">
<g clip-path="url(#clip0_0_1)">
<rect x="-233" y="-436" width="390" height="844" rx="20" fill="white"/>
<g id="Group 1469">
<g id="Vector">
<path id="vector-10" d="M9.13713 4.49702C9.39618 4.1738 9.34416 3.70178 9.02095 3.44274C8.69773 3.18369 8.22571 3.23571 7.96667 3.55893L9.13713 4.49702ZM1.37826 12.9786L1.9463 13.4683C1.95215 13.4615 1.95789 13.4546 1.9635 13.4476L1.37826 12.9786ZM1.17028 13.487L0.421737 13.4382L0.421083 13.4523L1.17028 13.487ZM1 17.1638L0.250803 17.1291C0.249078 17.1664 0.250133 17.2037 0.253958 17.2408L1 17.1638ZM1.95721 17.9994L1.98173 18.749C2.03175 18.7474 2.08148 18.7407 2.13017 18.7292L1.95721 17.9994ZM5.60606 17.1346L5.77904 17.8645L5.79068 17.8616L5.60606 17.1346ZM6.07433 16.8379L6.65294 17.3152L6.65944 17.3071L6.07433 16.8379ZM14.0058 8.14602C14.2649 7.82288 14.213 7.35085 13.8899 7.09171C13.5667 6.83258 13.0947 6.88447 12.8356 7.20762L14.0058 8.14602ZM7.97037 3.55902C7.71122 3.88214 7.76308 4.35418 8.08621 4.61333C8.40933 4.87249 8.88137 4.82063 9.14052 4.4975L7.97037 3.55902ZM10.4869 1.62002L11.072 2.08926C11.0818 2.07697 11.0913 2.06437 11.1004 2.05148L10.4869 1.62002ZM12.4682 1.23081L12.948 0.654367C12.9242 0.634486 12.8991 0.616109 12.8729 0.599341L12.4682 1.23081ZM15.1891 3.49553L15.7199 2.96569C15.7036 2.94938 15.6866 2.93383 15.6689 2.91909L15.1891 3.49553ZM15.5989 4.49394L16.3489 4.49806V4.49806L15.5989 4.49394ZM15.1781 5.4878L14.6531 4.95216C14.6319 4.97299 14.6119 4.99507 14.5932 5.01829L15.1781 5.4878ZM12.8357 7.2076C12.5764 7.5306 12.6281 8.00266 12.9511 8.26196C13.2741 8.52127 13.7461 8.46963 14.0054 8.14662L12.8357 7.2076ZM9.29716 3.91682C9.23578 3.50718 8.85394 3.22487 8.4443 3.28625C8.03466 3.34764 7.75234 3.72948 7.81373 4.13912L9.29716 3.91682ZM13.5216 8.41999C13.932 8.36422 14.2195 7.98628 14.1637 7.57584C14.108 7.1654 13.73 6.87788 13.3196 6.93365L13.5216 8.41999ZM7.96667 3.55893L0.793032 12.5096L1.9635 13.4476L9.13713 4.49702L7.96667 3.55893ZM0.810233 12.4889C0.581046 12.7547 0.444711 13.0879 0.421869 13.4382L1.91869 13.5358C1.92031 13.5109 1.93 13.4872 1.9463 13.4683L0.810233 12.4889ZM0.421083 13.4523L0.250803 17.1291L1.7492 17.1985L1.91948 13.5217L0.421083 13.4523ZM0.253958 17.2408C0.344559 18.1192 1.09914 18.7779 1.98173 18.749L1.9327 17.2498C1.83735 17.2529 1.75583 17.1818 1.74604 17.0869L0.253958 17.2408ZM2.13017 18.7292L5.77902 17.8644L5.4331 16.4049L1.78426 17.2696L2.13017 18.7292ZM5.79068 17.8616C6.12885 17.7757 6.43086 17.5843 6.65288 17.3151L5.49578 16.3606C5.47664 16.3838 5.4506 16.4003 5.42144 16.4077L5.79068 17.8616ZM6.65944 17.3071L14.0058 8.14602L12.8356 7.20762L5.48923 16.3687L6.65944 17.3071ZM9.14052 4.4975L11.072 2.08926L9.90183 1.15078L7.97037 3.55902L9.14052 4.4975ZM11.1004 2.05148C11.319 1.74067 11.7436 1.65725 12.0636 1.86227L12.8729 0.599341C11.8766 -0.0391107 10.5542 0.220664 9.87344 1.18855L11.1004 2.05148ZM11.9884 1.80725L14.7092 4.07197L15.6689 2.91909L12.948 0.654367L11.9884 1.80725ZM14.6582 4.02537C14.7812 4.14855 14.8498 4.31577 14.8489 4.48982L16.3489 4.49806C16.352 3.92382 16.1256 3.37212 15.7199 2.96569L14.6582 4.02537ZM14.8489 4.48982C14.8479 4.66387 14.7774 4.83033 14.6531 4.95216L15.7031 6.02344C16.1132 5.62149 16.3457 5.07231 16.3489 4.49806L14.8489 4.48982ZM14.5932 5.01829L12.8357 7.2076L14.0054 8.14662L15.763 5.95731L14.5932 5.01829ZM7.81373 4.13912C8.22549 6.88689 10.7684 8.79408 13.5216 8.41999L13.3196 6.93365C11.3794 7.19727 9.58734 5.85324 9.29716 3.91682L7.81373 4.13912Z" fill="#959595"/>
</g>
<path id="Line 44" d="M5 22H22" stroke="#959595" stroke-width="1.5" stroke-linecap="round"/>
</g>
</g>
</g>
<defs>
<clipPath id="clip0_0_1">
<rect x="-233" y="-436" width="390" height="844" rx="20" fill="white"/>
</clipPath>
</defs>
</svg>
