<svg width="20" height="20" viewBox="0 0 20 20" fill="none" xmlns="http://www.w3.org/2000/svg">
<g id="&#235;&#139;&#137;&#235;&#132;&#164;&#236;&#158;&#132; &#235;&#176;&#148;&#234;&#190;&#184;&#234;&#184;&#176; Icon">
<path id="Vector" d="M1 19H16.224" stroke="#4C4C4C" stroke-width="1.5" stroke-linecap="round" stroke-linejoin="round"/>
<path id="Vector_2" d="M9.30434 14.156L5.15234 14.9034L5.84434 10.696L15.1586 1.40938C15.2873 1.27966 15.4404 1.1767 15.609 1.10644C15.7777 1.03618 15.9586 1 16.1413 1C16.324 1 16.5049 1.03618 16.6735 1.10644C16.8422 1.1767 16.9953 1.27966 17.1239 1.40938L18.591 2.87642C18.7207 3.00508 18.8236 3.15815 18.8939 3.32681C18.9642 3.49546 19.0003 3.67636 19.0003 3.85906C19.0003 4.04177 18.9642 4.22266 18.8939 4.39131C18.8236 4.55997 18.7207 4.71304 18.591 4.8417L9.30434 14.156Z" stroke="#4C4C4C" stroke-width="1.5" stroke-linecap="round" stroke-linejoin="round"/>
</g>
</svg>
